<svg xmlns="http://www.w3.org/2000/svg" width="1024" height="500" viewBox="0 0 1024 500">
<defs>
<linearGradient id="bg" x1="0" y1="0" x2="1" y2="1">
<stop offset="0" stop-color="#ffffff"/>
<stop offset="1" stop-color="#f5f7fa"/>
</linearGradient>
<linearGradient id="ring" x1="0" y1="0" x2="1" y2="1">
<stop offset="0" stop-color="#c9c9c9"/>
<stop offset="1" stop-color="#8f8f8f"/>
</linearGradient>
</defs>
<rect width="1024" height="500" fill="url(#bg)"/>
<g transform="translate(250,250)">
<circle r="200" fill="#ffffff" stroke="url(#ring)" stroke-width="14"/>
<circle r="182" fill="#ffffff" stroke="#dedede" stroke-width="5"/>
<g transform="rotate(-15)">
<polygon points="0,-150 20,-20 0,0 -20,-20" fill="#1f2937"/>
<polygon points="0,150 -20,20 0,0 20,20" fill="#f59e0b"/>
<polygon points="150,0 20,20 0,0 20,-20" fill="#1f2937"/>
<polygon points="-150,0 -20,-20 0,0 -20,20" fill="#1f2937"/>
</g>
<circle r="9" fill="#1f2937"/>
</g>
<g transform="translate(520,160)">
<rect x="0" y="0" width="430" height="190" rx="18" fill="#fff" stroke="#e6e9ef"/>
<text x="24" y="54" fill="#111827" font-family="Inter, Arial" font-size="40" font-weight="600">CalenTrip</text>
<text x="24" y="104" fill="#6b7280" font-family="Inter, Arial" font-size="26">Calendário de viagens</text>
<g transform="translate(24,130)" fill="#9aa0a6" font-family="Inter, Arial" font-size="20">
<text>MON</text>
<text x="80">TUE</text>
<text x="160">WED</text>
<text x="240">THU</text>
<text x="320">FRI</text>
</g>
</g>
</svg>
