<svg xmlns="http://www.w3.org/2000/svg" width="512" height="512" viewBox="0 0 512 512">
<defs>
<linearGradient id="bg" x1="0" y1="0" x2="0" y2="1">
<stop offset="0" stop-color="#ffffff"/>
<stop offset="1" stop-color="#f2f2f2"/>
</linearGradient>
<linearGradient id="ringGrad" x1="0" y1="0" x2="1" y2="1">
<stop offset="0" stop-color="#c9c9c9"/>
<stop offset="1" stop-color="#8f8f8f"/>
</linearGradient>
</defs>
<rect x="0" y="0" width="512" height="512" fill="url(#bg)"/>
<g transform="translate(256,256)">
<circle r="220" fill="#ffffff" stroke="url(#ringGrad)" stroke-width="16"/>
<circle r="200" fill="#ffffff" stroke="#d9d9d9" stroke-width="6"/>
<g transform="rotate(-15)">
<polygon points="0,-160 22,-22 0,0 -22,-22" fill="#1f2937"/>
<polygon points="0,160 -22,22 0,0 22,22" fill="#f59e0b"/>
<polygon points="160,0 22,22 0,0 22,-22" fill="#1f2937"/>
<polygon points="-160,0 -22,-22 0,0 -22,22" fill="#1f2937"/>
<polygon points="0,-110 14,-14 0,0 -14,-14" fill="#1f2937"/>
<polygon points="0,110 -14,14 0,0 14,14" fill="#f59e0b"/>
<polygon points="110,0 14,14 0,0 14,-14" fill="#1f2937"/>
<polygon points="-110,0 -14,-14 0,0 -14,14" fill="#1f2937"/>
</g>
<circle r="10" fill="#1f2937"/>
</g>
<g transform="translate(32,420)" fill="#9aa0a6" font-family="Inter, Arial" font-size="28">
<text>MON</text>
<text x="105">TUE</text>
<text x="210">WED</text>
<text x="315">THU</text>
<text x="420">FRI</text>
</g>
</svg>
