<svg xmlns="http://www.w3.org/2000/svg" viewBox="0 0 192 192">
  <rect width="192" height="192" fill="#ffffff"/>
  <rect y="24" width="192" height="20" fill="#ededed"/>
  <g stroke="#e0e0e0" stroke-width="1" fill="none">
    <line x1="0" y1="24" x2="192" y2="24"/>
    <line x1="0" y1="44" x2="192" y2="44"/>
    <line x1="0" y1="64" x2="192" y2="64"/>
    <line x1="0" y1="84" x2="192" y2="84"/>
    <line x1="0" y1="104" x2="192" y2="104"/>
    <line x1="0" y1="124" x2="192" y2="124"/>
    <line x1="0" y1="144" x2="192" y2="144"/>
    <line x1="0" y1="164" x2="192" y2="164"/>
    <line x1="0" y1="184" x2="192" y2="184"/>
    <line x1="16" y1="24" x2="16" y2="192"/>
    <line x1="32" y1="24" x2="32" y2="192"/>
    <line x1="48" y1="24" x2="48" y2="192"/>
    <line x1="64" y1="24" x2="64" y2="192"/>
    <line x1="80" y1="24" x2="80" y2="192"/>
    <line x1="96" y1="24" x2="96" y2="192"/>
    <line x1="112" y1="24" x2="112" y2="192"/>
    <line x1="128" y1="24" x2="128" y2="192"/>
    <line x1="144" y1="24" x2="144" y2="192"/>
    <line x1="160" y1="24" x2="160" y2="192"/>
    <line x1="176" y1="24" x2="176" y2="192"/>
  </g>

  <g transform="translate(96,112)">
    <circle r="48" fill="#ffffff" stroke="#3a3a3a" stroke-width="4"/>
    <path d="M0,-30 L4,0 L0,30 L-4,0 Z" fill="#1f1f1f"/>
    <path d="M-30,0 L0,4 L30,0 L0,-4 Z" fill="#1f1f1f"/>
    <path d="M-20,-20 L0,0 L20,20 L0,0 Z" fill="#1f1f1f"/>
    <path d="M-20,20 L0,0 L20,-20 L0,0 Z" fill="#1f1f1f"/>
    <path d="M0,0 L28,-12 L6,6 Z" fill="#d32f2f"/>
    <path d="M0,0 L-12,28 L6,6 Z" fill="#d32f2f"/>
    <circle r="6" fill="#ffffff" stroke="#3a3a3a" stroke-width="2"/>
  </g>
</svg>
